<svg id="Layer_1" data-name="Layer 1" xmlns="http://www.w3.org/2000/svg" viewBox="0 0 1157.39 289.11"><defs><style>.cls-1{fill:#fffaff;}.cls-2{fill:none;stroke:#fffaff;stroke-miterlimit:10;stroke-width:2px;}</style></defs><title>blueprint-logo-Artboard 6 copy</title><path class="cls-1" d="M154.14,256.75c-2.07-.56-5.8,4.13-8,10.44-1.38,3.32-1.68,6.52-.2,6.92,2.12.58,5.84-4.29,8-10.21C155.16,261,155.8,257.2,154.14,256.75Z"/><path class="cls-1" d="M320.87,165.4Q309.71,135.14,271,135.14h-4.27v-.5Q299,115.47,299,97.83v-2a17.53,17.53,0,0,0-1.42-7.06Q291.67,71.35,269.13,60q-20.41-6.43-20.41-15.63v-1q0-9.07,17.56-20.17v-1l-.47-1h-.95q-43.68,29.25-43.67,46.39v1.51q0,10.85,23.73,26.23,18,9.57,18,19.66,0,20.31-52.21,48.92v2h.47q18.75-5.55,29.91-5.55a47.11,47.11,0,0,1,16.61,3q22.31,8.44,22.31,41.35,0,54.09-68.35,77.15,21.95-25.33,35.12-42.86v-.5a1,1,0,0,0-.95-1q-5.22,4-5.22,4.54-20.06,11.59-33.7,11.6h-.47V241q0-.63,22.78-24.2v-1l-21.84-22.19Q209.81,65.93,209.8,55q-.48-5.43-.48-12.11a26.7,26.7,0,0,1,.48-4q1.06-13.11,7.12-13.11h1.42q4.74,0,12.82,7.06h.47l1-.51Q222,0,214.07,0c-2.14,0-4,2-5.7,6.05q-1.19,0-2.37,97.83h-.47q0-4-6.65-20.17-26.46-49.92-66.45-49.92h-4.27q-20.77,0-46,11.59A126.07,126.07,0,0,0,53.16,64Q22.31,83.84,22.31,98.33v4.54q0,9.33,29.9,17.65,60.29,12.22,60.28,28.74v2.52l-.95,3.53q-3.8,4.66-3.79,6.06Q31.32,147.5,31.33,131.61c0-3.94,1.74-8.15,5.22-12.6a.94.94,0,0,0-.95-1h-.48Q0,149,0,156.32a18,18,0,0,0,4.75,12.61q11.75,8.58,54.58,17.65,37,11.6,37,23.7v3q0,3.78-4.74,9.58h-.48q-27-12.62-35.59-12.61H54.11q-6.4,0-12.34,6.56Q18,245.07,6.17,263.23c0,1,.32,1.51,1,1.51h.47q12.23-17.64,32.28-17.65a60.26,60.26,0,0,1,24.68,5.55q83,36.3,123.41,36.3h3.33q20.52,0,50.31-8.57,24.56-8.56,42.24-21.68,8.79-8.07,9.5-8.07,29.43-32.26,29.43-68.58v-2.52A55.4,55.4,0,0,0,320.87,165.4Zm-226.41,59a16.12,16.12,0,0,0,3.79-1q19-5.41,19-27.73v-6a19.34,19.34,0,0,1,1-4.54Q129.11,174.6,129.11,171v-.51c0-1.68-.32-2.52-1-2.52q0-3.15-16.62-5.55v-.5q9-2.15,13.29-6.56,7.13-8.56,7.12-15.12,0-13.62,1.43-15.64,10-9.19,10-13.11,0-4.41-8.07-6.55-27.06-4.55-34.65-7.06-48.9-10.1-48.89-21.69v-2q0-3.91,4.27-9.08,20.52-10.59,37.5-10.59,18.51,0,35.6,12.61Q168,102,168,140.69q0,46.14-42.72,96.82l.47,1q-1.19,0-31.32-13.62ZM76.92,250.49c-1.77-.76-5.49-2.43-9-4-1.52-.66-2.73-1.1-3.41-1.39a1.61,1.61,0,0,1,.6-.93c.34.14,1.75.6,2.07.31a11.34,11.34,0,0,0,1.72-2.28l7.36-11.13a10.39,10.39,0,0,0,1.38-2.43c.1-.38-1.11-1.05-1.45-1.2a1.56,1.56,0,0,1,.63-.91c1.1.54,2.27,1.16,3.34,1.62,1.77.76,6.41,2.47,8.61,3.42-.74,1.48-1.27,2.94-1.86,4.3a1.14,1.14,0,0,1-.65-.1c-.2-.09-.32-.21-.25-.36.69-2.14.32-3.31-1.17-4l-2.22-1c-.45-.19-1.45-.59-1.75-.36a9.56,9.56,0,0,0-1.34,1.8l-3.38,5c-.1.17.42.5,1,.74l1.38.6c2,.87,2.31.67,3.91-.87a.41.41,0,0,1,.5-.07.58.58,0,0,1,.35.36l-3.5,5.33a1,1,0,0,1-.53-.09c-.2-.08-.3-.23-.23-.39.62-1.6.51-1.89.35-2.14a7.53,7.53,0,0,0-2.24-1.22c-.73-.32-1.93-.8-2.12-.52l-3.17,4.82a10.32,10.32,0,0,0-1.19,2.14c0,.44.6.77,1.5,1.16l1.5.64A6.05,6.05,0,0,0,77,248a9.27,9.27,0,0,0,3.34-2.09.51.51,0,0,1,.5,0c.25.11.58.36.59.48A55.41,55.41,0,0,0,76.92,250.49Zm13.62-9a1.58,1.58,0,0,0-1.92,1c-.47,1.16.43,2.82.94,4.32a5.64,5.64,0,0,1,.15,4.31c-1,2.5-3.74,3.2-6.29,2.15a4.57,4.57,0,0,1-2.38-2,2.61,2.61,0,0,1,.12-1.17,1.48,1.48,0,0,1,1.82-1c.62.26.73,1.05.91,2A1.88,1.88,0,0,0,85,252.69a1.58,1.58,0,0,0,1.93-1c.51-1.22-.35-2.75-.8-4.23s-.93-2.66-.2-4.43a4.56,4.56,0,0,1,6-2.23,4.3,4.3,0,0,1,2.41,2,2.49,2.49,0,0,1-.14,1.23,1.43,1.43,0,0,1-1.77.91c-.62-.26-.84-1.17-1-1.87S91.28,241.82,90.54,241.51Zm12.24,17.28a2.48,2.48,0,0,1-2.83,1.39,1.58,1.58,0,0,1-.69-2.32,2.51,2.51,0,0,1,2.88-1.33A1.54,1.54,0,0,1,102.78,258.79Zm.62-12.06a2,2,0,0,1-.64.78l-2.39-1-4.58,7.35a8.22,8.22,0,0,0-.54,1c-.11.27-.2.73.09.85.62.25,2.59-1,2.72-1.05.15.06.14.66.07.84-.72.64-4,2.21-5.44,1.64-.77-.31-1.14-1.2-.65-2.43a12.1,12.1,0,0,1,.92-1.65l4.73-7.57-2-.8s0-.05,0-.11a1.84,1.84,0,0,1,1.82-.66l.94.37,1.24-2a13.43,13.43,0,0,1,3.28-1,.92.92,0,0,1,.42.38l-2.26,3.69,2.33.93C103.56,246.33,103.46,246.58,103.4,246.73Zm18.09,20.66a1.77,1.77,0,0,1-.21.31c-1-.44-2.75-1.15-3.82-1.52s-2-.6-3.12-.93c-.06-.19.35-.89.5-.84.31.11,1.89.35,2.15.06a8.79,8.79,0,0,0,1.09-1.61l5.57-9.8c1-1.74,1.51-2.65,1-2.84a9.66,9.66,0,0,0-2.09.11.89.89,0,0,1,0-.78.27.27,0,0,1,.16-.19c3.39-.56,6.15-1,7.11-1.24l.05,0c.18.06.06.68-.07,1a19,19,0,0,0-2.53,3.66l-5.73,10.19a15.14,15.14,0,0,0-1.27,2.67c-.09.35,1.26,1.14,1.46,1.21S121.6,267.18,121.49,267.39Zm16-.44a18.7,18.7,0,0,1-10.47,2.81c-.16-.12,0-.63.06-.81a15.49,15.49,0,0,0,10.57-5.51,18,18,0,0,0,3.58-6.35c.65-2,.6-3.9-.63-4.28-1.61-.51-4.42,2.06-5.4,5.14-.56,1.76-.44,3.32,1.17,3.83a2.18,2.18,0,0,0,1.13.08.54.54,0,0,1,0,.46c-.12.38-2.15.88-3.2.54-2.25-.71-3-3.18-2.2-5.82,1.22-3.87,5.66-6.31,9.11-5.21,2.45.78,3.94,3.6,2.81,7.16A15.33,15.33,0,0,1,137.54,267Zm7.76,8.23c-3.52-1-4.12-5.88-1.62-11.08,2.67-5.57,7.49-9.39,11-8.44,3.85,1,4.11,6,1.61,11.22S149,276.19,145.3,275.18ZM171,264.37c-.91,2.17-3.23,3.23-5,3.73-.13,0-.12.11-.07.18,1.32,1.74,2.42,4.24,1.52,6.41a7.09,7.09,0,0,1-7.88,4.12,4.53,4.53,0,0,1-3.42-6.44c1.12-2.73,4-3.49,5.55-4,.11,0,.16-.14.1-.19a6,6,0,0,1-.77-5.63c1.1-2.64,4.11-4.53,6.86-3.94C170.34,259.17,172.31,261.11,171,264.37Zm34.54-111.58q-.48,13.25-.48,22.19v19.67q-20.42,19.66-21.36,19.66v1.52L204.1,240v14.12h-6.64l-2.85.51a4.6,4.6,0,0,0-2.38-.51h-1.42q-24.8,0-63.6-14.62a.94.94,0,0,1,1-1q24.21-13.36,39.87-28.24,16.85-15.76,25.15-29.25Q205,158.1,205.05,152.29h.48Z"/><path class="cls-1" d="M162.4,269.32s-.06,0-.09,0a7.09,7.09,0,0,0-3.13,3.92c-1,2.49-.3,4.19,1,4.48,1.59.34,3.13-.85,3.82-2.6,1-2.68-1.26-5.43-1.5-5.75A.34.34,0,0,0,162.4,269.32Z"/><path class="cls-1" d="M167.32,259.67c-1.2-.25-2.67.92-3.32,2.94a4.91,4.91,0,0,0,1.14,4.5c.05,0,.07.08.13.09a.19.19,0,0,0,.17,0,7,7,0,0,0,2.89-3.7C168.82,262,168.76,260,167.32,259.67Z"/><line class="cls-2" x1="360.68" y1="22.19" x2="360.68" y2="279.53"/><path class="cls-1" d="M405.13,51.47c0-8.7-2.19-13.37-6.54-13.37V31.57H435.9c25.19,0,37.32,26.43,37.32,53.17,0,19-5.6,38.24-17.73,48.5,14.3,11.82,17.73,37,17.73,54.72v18c0,23.94-5.92,61.56-37.32,61.56H398.59V261c4.35,0,6.54-4.35,6.54-13.36Zm26.11,74.94h4.66c5.91,0,11.51-12.13,11.51-35.76V81c0-23.63-5.6-35.76-11.51-35.76h-4.66Zm0,127.47h4.66c5.91,0,11.51-12.13,11.51-35.76V175.84c0-23.63-5.6-35.76-11.51-35.76h-4.66Z"/><path class="cls-1" d="M489.05,51.47c0-8.7-2.18-13.37-6.53-13.37V31.57h39.17V38.1c-4.35,0-6.52,4.67-6.52,13.37v202.1c26.42,0,32-46.95,32-64.67h6.53v78.66h-71.2V261c4.35,0,6.53-4.35,6.53-13.36Z"/><path class="cls-1" d="M603.45,269.43c-29.84,0-36.68-37.94-37-61.57V51.47c0-8.7-2.18-13.37-6.53-13.37V31.57h39.18V38.1c-4.35,0-6.53,4.67-6.53,13.37V220c0,23.63,5.28,35.44,10.87,35.44s10.89-11.81,10.89-35.44V51.47c0-8.7-2.18-13.37-6.53-13.37V31.57H647V38.1c-4.67,0-6.84,4.67-6.84,13.37V207.86C640.15,231.49,633.31,269.43,603.45,269.43Z"/><path class="cls-1" d="M728.42,110.55h-6.53c0-18-5.59-65-32-64.67v80.53c10-2.18,13.37-14,13.37-35.14h6.53v97.94h-6.53c0-20.83-3.42-33-13.37-34.83v99.19c26.43,0,32-46.95,32-64.67h6.53v78.66h-71.2V261c4.35,0,6.54-4.35,6.54-13.36V51.47c0-8.7-2.19-13.37-6.54-13.37V31.57h71.2Z"/><path class="cls-1" d="M773.49,247.66c0,9,2.18,13.36,6.53,13.36v6.54H740.84V261c4.35,0,6.54-4.35,6.54-13.36V51.47c0-8.7-2.19-13.37-6.54-13.37V31.57h37.31c31.4,0,37.31,37.94,37.31,61.57v-.63c0,23.63-5.91,61.56-37.31,61.56h-4.66Zm0-107.58h4.66c5.91,0,11.5-11.81,11.5-35.44V81c0-23.63-5.59-35.76-11.5-35.76h-4.66Z"/><path class="cls-1" d="M854.94,247.66c0,9,2.17,13.36,6.52,13.36v6.54H822.29V261c4.35,0,6.53-4.35,6.53-13.36V51.47c0-8.7-2.18-13.37-6.53-13.37V31.57h37.3c31.41,0,37.32,37.94,37.32,61.57v-.63c0,17.42-3.11,42.29-17.1,54.41,14,9.33,17.1,23.63,17.1,41v59.7c0,9,2.17,13.36,6.84,13.36v6.54H877.63q-6.54,0-6.53-13.06V189.83c0-12.44-.31-35.76-16.16-35.76Zm0-107.58h4.65c5.91,0,11.51-11.81,11.51-35.44V81c0-23.63-5.6-35.76-11.51-35.76h-4.65Z"/><path class="cls-1" d="M919.59,51.47c0-8.7-2.19-13.37-6.54-13.37V31.57h39.18V38.1c-4.35,0-6.53,4.67-6.53,13.37V247.66c0,9,2.18,13.36,6.53,13.36v6.54H913.05V261c4.35,0,6.54-4.35,6.54-13.36Z"/><path class="cls-1" d="M1023.41,169.31V51.47c0-8.7-2.17-13.37-6.84-13.37V31.57h35.76V38.1c-4.35,0-6.84,4.67-6.84,13.37V267.56h-25.81L992,145.37V247.66c0,9,2.17,13.36,6.84,13.36v6.54H963.09V261c4.35,0,6.54-4.35,6.54-13.36V51.47c0-8.7-2.19-13.37-6.54-13.37V31.57H992Z"/><path class="cls-1" d="M1157.4,110.55h-6.53c0-16.79-5-58.46-26.74-64V247.66c0,9,2.18,13.36,6.53,13.36v6.54h-39.18V261c4.35,0,6.53-4.35,6.53-13.36V46.5c-21.76,5.59-26.73,47.26-26.73,64.05h-6.54v-79h92.66Z"/></svg>